<?xml version="1.0" encoding="UTF-8"?> <svg xmlns="http://www.w3.org/2000/svg" width="300" height="300" viewBox="0 0 300 300" fill="none"> <rect width="300" height="300" fill="white"></rect> <path d="M55.2654 131.333H61.8602V122C61.8602 122 54.9292 122 54.7611 122.007C39.3951 122.286 27 134.711 27 150C27 165.455 39.6659 177.985 55.2654 178H61.8602V168.666H55.2654C52.4035 168.655 49.5817 167.999 47.0135 166.748C44.4453 165.497 42.1982 163.683 40.4423 161.445C38.6864 159.206 37.4677 156.601 36.8785 153.826C36.2893 151.052 36.3451 148.181 37.0417 145.432C38.1046 149.416 40.4685 152.94 43.7649 155.455C47.0613 157.97 51.1049 159.333 55.2654 159.333H61.8602V150H55.2654C50.0988 150 45.8932 145.785 45.8932 140.667C45.8932 135.549 50.0988 131.333 55.2654 131.333Z" fill="#0057FF"></path> <path d="M76.2 154.645V144.586C76.2 137.465 80.4721 133.372 88.3638 133.372C91.7116 133.372 94.4885 134.306 96.6478 136.132C98.8072 137.957 99.9082 140.67 99.9082 144.368V144.813H93.034V144.368C93.034 141.164 90.7873 139.695 87.923 139.695C84.662 139.695 83.0315 141.164 83.0315 144.102V155.139C83.0315 158.077 84.662 159.545 87.923 159.545C90.8747 159.545 93.034 158.21 93.034 154.872V154.427H99.9082V154.872C99.9082 158.565 98.8072 161.324 96.6478 163.15C94.4885 164.976 91.7116 165.864 88.3638 165.864C80.4721 165.86 76.2 161.775 76.2 154.645Z" fill="#101417"></path> <path d="M103.874 149.883C103.874 144.764 107.532 141.254 114.053 141.254C120.573 141.254 124.189 144.77 124.189 149.883V157.049C124.189 162.166 120.575 165.727 114.053 165.727C107.53 165.727 103.874 162.167 103.874 157.049V149.883ZM117.931 156.825V150.205C117.931 148.291 116.521 146.955 114.047 146.955C111.447 146.955 110.124 148.379 110.124 150.205V156.835C110.124 158.661 111.447 160.04 114.047 160.04C116.521 160.03 117.931 158.651 117.931 156.825Z" fill="#101417"></path> <path d="M129.079 165.193V141.783H135.337V165.193H129.079Z" fill="#101417"></path> <path d="M141.252 165.193V141.783H144.822L146.54 143.964C147.43 143.083 148.484 142.39 149.642 141.924C150.799 141.457 152.036 141.228 153.282 141.248C158.35 141.248 161.347 144.676 161.347 150.373V165.193H155.08V150.728C155.08 148.236 153.758 146.945 151.863 146.945C150.232 146.945 148.777 147.702 147.499 149.171V165.193H141.252Z" fill="#101417"></path> <path d="M168.475 163.324C166.625 161.72 165.656 159.675 165.611 157.137H171.693C172.081 159.139 173.676 160.12 176.497 160.12C178.393 160.12 179.538 159.496 179.538 158.473C179.538 157.627 178.876 157.049 177.511 156.692L171.825 155.223C168.079 154.243 166.184 152.152 166.184 148.904C166.184 144.143 169.621 141.256 175.571 141.256C181.257 141.256 185.086 144.417 185.267 149.4H179.229C178.744 147.71 177.379 146.865 175.175 146.865C173.233 146.865 172.262 147.443 172.262 148.555C172.262 149.179 172.88 149.669 174.113 149.979L180.195 151.538C183.808 152.472 185.614 154.652 185.614 157.99C185.614 162.842 181.868 165.735 175.921 165.735C172.839 165.727 170.38 164.925 168.475 163.324Z" fill="#101417"></path> <path d="M190.77 165.193V134.039H204.608C210.117 134.039 213.422 137.822 213.422 143.831C213.422 149.84 210.121 153.578 204.608 153.578H197.605V165.193H190.77ZM197.601 147.569H203.33C205.048 147.569 206.503 146.323 206.503 143.831C206.503 141.338 205.048 140.048 203.33 140.048H197.605L197.601 147.569Z" fill="#101417"></path> <path d="M231.891 165.193L230.172 163.013C228.277 164.836 225.941 165.727 223.164 165.727C220.962 165.727 219.111 165.103 217.612 163.903C216.113 162.656 215.364 160.919 215.366 158.694C215.366 153.844 218.494 151.085 224.708 151.085H229.246V149.795C229.246 147.881 228.145 146.945 225.896 146.945C223.648 146.945 222.548 147.702 222.548 149.259H216.422C216.422 144.409 219.684 141.248 225.896 141.248C232.108 141.248 235.505 144.409 235.505 149.349V165.193H231.891ZM229.246 158.116V155.535H224.708C222.636 155.535 221.622 156.292 221.622 157.849C221.622 159.222 222.593 160.163 224.486 160.163C226.426 160.163 228.013 159.496 229.246 158.116Z" fill="#101417"></path> <path d="M241.188 165.193V141.783H247.447V165.193H241.188Z" fill="#101417"></path> <path d="M269.437 165.193L267.718 163.013C266.818 163.895 265.754 164.589 264.588 165.054C263.422 165.52 262.176 165.749 260.922 165.727C256.162 165.727 252.68 162.785 252.68 157.137V149.795C252.68 146.99 253.475 144.855 255.011 143.429C256.552 141.962 258.535 141.248 260.916 141.248C263.297 141.248 265.235 141.872 266.741 143.162V133.817H273V165.195L269.437 165.193ZM266.747 157.804V149.175C265.293 147.706 263.751 146.949 262.209 146.949C261.776 146.945 261.347 147.029 260.947 147.196C260.548 147.363 260.185 147.609 259.881 147.92C259.577 148.231 259.338 148.6 259.177 149.006C259.017 149.412 258.94 149.846 258.949 150.283V156.692C258.939 157.129 259.017 157.563 259.177 157.969C259.337 158.375 259.576 158.745 259.88 159.056C260.184 159.367 260.547 159.613 260.947 159.779C261.347 159.946 261.776 160.03 262.209 160.026C263.751 160.03 265.293 159.273 266.747 157.804Z" fill="#101417"></path> </svg> 